<?xml version="1.0" encoding="iso-8859-1"?>
<!-- Generator: Adobe Illustrator 19.0.0, SVG Export Plug-In . SVG Version: 6.00 Build 0)  -->
<svg xmlns="http://www.w3.org/2000/svg" xmlns:xlink="http://www.w3.org/1999/xlink" version="1.1" id="Capa_1" x="0px" y="0px" viewBox="0 0 480 480" style="enable-background:new 0 0 480 480;" xml:space="preserve" width="512px" height="512px">
<g>
	<g>
		<path d="M391.584,195.472c-0.956-2.849-3.428-4.923-6.4-5.368l-95.28-14.568L247.24,84.6c-1.88-3.999-6.645-5.716-10.643-3.837    c-1.687,0.793-3.044,2.15-3.837,3.837l-42.688,90.936l-95.28,14.568c-4.367,0.669-7.365,4.753-6.695,9.12    c0.253,1.647,1.013,3.174,2.175,4.368l69.184,70.904l-16.352,100.216c-0.708,4.361,2.253,8.471,6.614,9.179    c1.767,0.287,3.579-0.027,5.146-0.891L240,335.944L325.136,383c1.181,0.658,2.512,1.003,3.864,1c4.418,0,8-3.581,8-8    c0-0.432-0.035-0.862-0.104-1.288l-16.352-100.216l69.184-70.904C391.818,201.446,392.534,198.313,391.584,195.472z     M306.272,266.208c-1.774,1.819-2.579,4.372-2.168,6.88l14.352,87.944l-74.592-41.224c-2.405-1.327-5.323-1.327-7.728,0    l-74.592,41.224l14.352-87.944c0.411-2.508-0.394-5.061-2.168-6.88L112.6,203.56l84.112-12.848c2.637-0.404,4.9-2.096,6.032-4.512    L240,106.832l37.256,79.368c1.132,2.416,3.395,4.108,6.032,4.512L367.4,203.56L306.272,266.208z" fill="#FFDA44"/>
	</g>
</g>
<g>
	<g>
		<path d="M72,72c-13.255,0-24-10.745-24-24c0-4.418-3.582-8-8-8s-8,3.582-8,8c0,13.255-10.745,24-24,24c-4.418,0-8,3.582-8,8    s3.582,8,8,8c13.255,0,24,10.745,24,24c0,4.418,3.582,8,8,8s8-3.582,8-8c0-13.255,10.745-24,24-24c4.418,0,8-3.582,8-8    S76.418,72,72,72z M40,88c-2.276-3.031-4.969-5.724-8-8c3.031-2.276,5.724-4.969,8-8c2.276,3.031,4.969,5.724,8,8    C44.969,82.276,42.276,84.969,40,88z" fill="#FFDA44"/>
	</g>
</g>
<g>
	<g>
		<rect x="112" width="16" height="16" fill="#FFDA44"/>
	</g>
</g>
<g>
	<g>
		<rect x="112" y="32" width="16" height="16" fill="#FFDA44"/>
	</g>
</g>
<g>
	<g>
		<rect x="96" y="16" width="16" height="16" fill="#FFDA44"/>
	</g>
</g>
<g>
	<g>
		<rect x="128" y="16" width="16" height="16" fill="#FFDA44"/>
	</g>
</g>
<g>
	<g>
		<path d="M472,392c-13.255,0-24-10.745-24-24c0-4.418-3.582-8-8-8s-8,3.582-8,8c0,13.255-10.745,24-24,24c-4.418,0-8,3.582-8,8    s3.582,8,8,8c13.255,0,24,10.745,24,24c0,4.418,3.582,8,8,8s8-3.582,8-8c0-13.255,10.745-24,24-24c4.418,0,8-3.582,8-8    S476.418,392,472,392z M440,408c-2.276-3.031-4.969-5.724-8-8c3.031-2.276,5.724-4.969,8-8c2.276,3.031,4.969,5.724,8,8    C444.969,402.276,442.276,404.969,440,408z" fill="#FFDA44"/>
	</g>
</g>
<g>
	<g>
		<path d="M144,416c-13.255,0-24-10.745-24-24c0-4.418-3.582-8-8-8s-8,3.582-8,8c0,13.255-10.745,24-24,24c-4.418,0-8,3.582-8,8    s3.582,8,8,8c13.255,0,24,10.745,24,24c0,4.418,3.582,8,8,8s8-3.582,8-8c0-13.255,10.745-24,24-24c4.418,0,8-3.582,8-8    S148.418,416,144,416z M112,432c-2.276-3.031-4.969-5.724-8-8c3.031-2.276,5.724-4.969,8-8c2.276,3.031,4.969,5.724,8,8    C116.969,426.276,114.276,428.969,112,432z" fill="#FFDA44"/>
	</g>
</g>
<g>
	<g>
		<path d="M408,64c-13.255,0-24-10.745-24-24c0-4.418-3.582-8-8-8s-8,3.582-8,8c0,13.255-10.745,24-24,24c-4.418,0-8,3.582-8,8    s3.582,8,8,8c13.255,0,24,10.745,24,24c0,4.418,3.582,8,8,8s8-3.582,8-8c0-13.255,10.745-24,24-24c4.418,0,8-3.582,8-8    S412.418,64,408,64z M376,80c-2.276-3.031-4.969-5.724-8-8c3.031-2.276,5.724-4.969,8-8c2.276,3.031,4.969,5.724,8,8    C380.969,74.276,378.276,76.969,376,80z" fill="#FFDA44"/>
	</g>
</g>
<g>
	<g>
		<rect x="352" y="464" width="16" height="16" fill="#FFDA44"/>
	</g>
</g>
<g>
	<g>
		<rect x="352" y="432" width="16" height="16" fill="#FFDA44"/>
	</g>
</g>
<g>
	<g>
		<rect x="368" y="448" width="16" height="16" fill="#FFDA44"/>
	</g>
</g>
<g>
	<g>
		<rect x="336" y="448" width="16" height="16" fill="#FFDA44"/>
	</g>
</g>
<g>
	<g>
		<rect x="32" y="296" width="16" height="16" fill="#FFDA44"/>
	</g>
</g>
<g>
	<g>
		<rect x="64" y="312" width="16" height="16" fill="#FFDA44"/>
	</g>
</g>
<g>
	<g>
		<rect x="416" y="136" width="16" height="16" fill="#FFDA44"/>
	</g>
</g>
<g>
	<g>
		<rect x="448" y="152" width="16" height="16" fill="#FFDA44"/>
	</g>
</g>
<g>
</g>
<g>
</g>
<g>
</g>
<g>
</g>
<g>
</g>
<g>
</g>
<g>
</g>
<g>
</g>
<g>
</g>
<g>
</g>
<g>
</g>
<g>
</g>
<g>
</g>
<g>
</g>
<g>
</g>
</svg>
